<svg version="1.1" id="Layer_1" xmlns="http://www.w3.org/2000/svg" x="0" y="0" viewBox="0 0 116.9 35.6" xml:space="preserve"><style>.st0{fill:#fff}</style><path class="st0" d="M30.7 0H4.9C3.8 0 3 .9 3 1.9v28.7c0 1.1.9 1.9 1.9 1.9h25.8c1.1 0 1.9-.9 1.9-1.9V1.9c0-1-.8-1.9-1.9-1.9zm-1.6 8.4H11v14.1c0 .6.2 1 .5 1.4s.8.5 1.4.5h16.3v4.5H12.8c-.6 0-1.3-.1-2.1-.3-.7-.2-1.4-.6-2.1-1.1s-1.2-1.2-1.6-2c-.4-.8-.6-1.8-.6-3V6.1c0-.3.1-.6.2-.9.2-.2.3-.5.5-.7.2-.2.5-.4.8-.5.3-.1.6-.2.9-.2h20.3v4.6zm-2 5.6v4.6H12.8V14h14.3z"/><path d="M4.9 32.6c-1.1 0-1.9-.9-1.9-1.9V3H2C.9 3 0 3.8 0 4.9v28.7c0 1.1.9 1.9 1.9 1.9h25.8c1.1 0 1.9-.9 1.9-1.9v-1H4.9z" fill="#dee0e0"/><path class="st0" d="M61.6 21.3c0 .9-.1 1.7-.3 2.4-.2.7-.5 1.3-.9 1.9-.4.5-.8 1-1.3 1.4-.5.4-1 .7-1.5.9-.5.2-1.1.4-1.6.5-.6.1-1.1.2-1.6.2H36.9v-4.5h17.4c.9 0 1.5-.3 2-.8s.7-1.2.7-2.1c0-.4-.1-.8-.2-1.1-.1-.3-.3-.6-.5-.9-.2-.3-.5-.5-.9-.6s-.7-.2-1.1-.2H44c-.7 0-1.5-.1-2.4-.4s-1.6-.7-2.4-1.3c-.7-.6-1.3-1.3-1.8-2.3-.5-.9-.7-2.1-.7-3.4s.2-2.5.7-3.4c.5-.9 1.1-1.7 1.8-2.3.7-.6 1.5-1 2.4-1.3s1.6-.4 2.4-.4h15.4v4.5H44c-.9 0-1.5.3-2 .8s-.7 1.2-.7 2.1c0 .9.2 1.6.7 2.1.5.5 1.1.8 2 .8h10.4c.5 0 1 .1 1.5.2s1.1.3 1.6.6 1.1.6 1.5 1c.5.4.9.9 1.3 1.4.4.5.7 1.2.9 1.9.3.6.4 1.4.4 2.3zM88.9 12c0 1-.1 2-.4 2.8s-.6 1.5-1 2.1c-.4.6-.9 1.1-1.5 1.6s-1.2.8-1.8 1.1c-.6.3-1.2.5-1.9.6-.6.1-1.2.2-1.8.2h-1.8v8.2h-4.6v-8.2h-1.8c-.6 0-1.1-.1-1.8-.2-.6-.1-1.3-.3-1.9-.6-.6-.3-1.2-.6-1.8-1.1-.6-.4-1.1-1-1.5-1.6-.4-.6-.8-1.3-1-2.2S64 13.1 64 12V3.7h4.5V12c0 .6.1 1.1.3 1.6.2.5.4.9.8 1.2s.7.6 1.2.8c.5.2 1 .3 1.6.3h8.2c.4-.1.9-.2 1.3-.3.5-.1.9-.3 1.2-.6.4-.3.7-.6.9-1.1.2-.5.4-1.1.4-1.9V3.7h4.5V12zM116.9 21.3c0 .9-.1 1.7-.3 2.4-.2.7-.5 1.3-.9 1.9-.4.5-.8 1-1.3 1.4-.5.4-1 .7-1.5.9-.5.2-1.1.4-1.6.5-.6.1-1.1.2-1.6.2H92.2v-4.5h17.4c.9 0 1.5-.3 2-.8s.7-1.2.7-2.1c0-.4-.1-.8-.2-1.1-.1-.3-.3-.6-.5-.9-.2-.3-.5-.5-.9-.6s-.7-.2-1.1-.2H99.2c-.7 0-1.5-.1-2.4-.4s-1.6-.7-2.4-1.3c-.7-.6-1.3-1.3-1.8-2.3-.5-.9-.7-2.1-.7-3.4s.2-2.5.7-3.4c.5-.9 1.1-1.7 1.8-2.3.7-.6 1.5-1 2.4-1.3s1.6-.4 2.4-.4h15.4v4.5H99.2c-.9 0-1.5.3-2 .8s-.7 1.2-.7 2.1c0 .9.2 1.6.7 2.1.5.5 1.1.8 2 .8h10.4c.5 0 1 .1 1.5.2s1.1.3 1.6.6 1.1.6 1.5 1c.5.4.9.9 1.3 1.4.4.5.7 1.2.9 1.9.4.6.5 1.4.5 2.3z"/></svg>