<svg version="1.1" id="Layer_1" xmlns="http://www.w3.org/2000/svg" x="0" y="0" viewBox="0 0 143.9 48.4" xml:space="preserve"><style>.st3{fill:#202020}</style><path d="M33.6 44.6H1.9c-1.1 0-1.9-.9-1.9-1.9V7.4c0-1.1.9-1.9 1.9-1.9h31.6c1.1 0 1.9.9 1.9 1.9v35.2c.1 1.1-.8 2-1.8 2z" fill="#9ae2d6"/><path d="M37.1 41H5.5c-1.1 0-1.9-.9-1.9-1.9V3.9C3.5 2.8 4.4 2 5.5 2h31.6c1.1 0 1.9.8 1.9 1.9v35.2c0 1-.8 1.9-1.9 1.9z" fill="#1aab9a"/><path d="M34.8 36.4H15.3c-.7 0-1.6-.1-2.5-.4-.9-.3-1.7-.7-2.5-1.3-.8-.6-1.4-1.4-1.9-2.4s-.8-2.1-.8-3.5V9.3c0-.4.1-.7.2-1.1.1-.3.3-.6.6-.9.2-.2.5-.4.9-.6.3-.1.7-.2 1.1-.2h24.4V12H13.2v16.8c0 .7.2 1.2.6 1.6.4.4.9.6 1.6.6h19.5v5.4zm-2.4-12.2H15.3v-5.4h17.1v5.4z" fill="#fff"/><path class="st3" d="M74.6 27.4c0 1.1-.1 2-.4 2.9s-.6 1.6-1.1 2.3-1 1.2-1.6 1.7c-.6.5-1.2.8-1.9 1.1-.6.3-1.3.5-1.9.6s-1.3.2-1.9.2H45v-5.4h20.9c1 0 1.8-.3 2.4-.9.6-.6.9-1.4.9-2.5 0-.5-.1-1-.2-1.4s-.4-.8-.7-1.1c-.3-.3-.6-.5-1-.7-.4-.2-.9-.2-1.4-.2H53.4c-.9 0-1.8-.2-2.8-.5-1-.3-2-.8-2.8-1.5-.9-.7-1.6-1.6-2.2-2.7-.6-1.1-.9-2.5-.9-4.1s.3-3 .9-4.1c.6-1.1 1.3-2 2.2-2.7.9-.7 1.8-1.2 2.8-1.5 1-.3 2-.5 2.8-.5h18.4v5.4H53.4c-1 0-1.8.3-2.4.9-.6.6-.9 1.4-.9 2.5 0 1 .3 1.9.9 2.5.6.6 1.4.9 2.4.9h12.4c.6 0 1.2.1 1.9.2s1.3.4 1.9.7c.6.3 1.3.7 1.8 1.2.6.5 1.1 1 1.5 1.7.5.7.8 1.4 1.1 2.2.4.8.6 1.8.6 2.8zM107.2 16.4c0 1.2-.2 2.3-.5 3.3s-.7 1.8-1.2 2.6c-.5.7-1.1 1.4-1.8 1.9s-1.4 1-2.1 1.3c-.7.3-1.5.6-2.2.7-.8.2-1.5.2-2.1.2H95v9.8h-5.4v-9.8h-2.2c-.7 0-1.4-.1-2.1-.2-.8-.2-1.5-.4-2.2-.7-.7-.3-1.5-.8-2.1-1.3-.7-.5-1.3-1.2-1.8-1.9s-.9-1.6-1.2-2.6-.5-2.1-.5-3.3v-10h5.4v10c0 .7.1 1.3.3 1.9.2.6.5 1 .9 1.4s.9.7 1.5.9c.6.2 1.2.3 1.9.3h9.8c.5-.1 1-.2 1.6-.3.5-.1 1-.4 1.5-.7.4-.3.8-.8 1.1-1.3.3-.6.4-1.3.4-2.3v-10h5.4v10.1zM140.7 27.4c0 1.1-.1 2-.4 2.9-.3.9-.6 1.6-1.1 2.3-.4.7-1 1.2-1.6 1.7-.6.5-1.2.8-1.9 1.1-.6.3-1.3.5-1.9.6-.7.1-1.3.2-1.9.2H111v-5.4h21c1 0 1.8-.3 2.4-.9.6-.6.9-1.4.9-2.5 0-.5-.1-1-.2-1.4s-.4-.8-.7-1.1c-.3-.3-.6-.5-1-.7-.4-.2-.9-.2-1.4-.2h-12.4c-.9 0-1.8-.2-2.8-.5-1-.3-2-.8-2.8-1.5-.9-.7-1.6-1.6-2.2-2.7s-.9-2.5-.9-4.1.3-3 .9-4.1 1.3-2 2.2-2.7c.9-.7 1.8-1.2 2.8-1.5 1-.3 2-.5 2.8-.5H138v5.4h-18.4c-1 0-1.8.3-2.4.9-.6.6-.9 1.4-.9 2.5 0 1 .3 1.9.9 2.5.6.6 1.4.9 2.4.9H132c.6 0 1.2.1 1.9.2s1.3.4 1.9.7c.6.3 1.3.7 1.8 1.2.6.5 1.1 1 1.6 1.7.4.7.8 1.4 1.1 2.2s.4 1.8.4 2.8z"/></svg>